<svg aria-hidden="true" style="position: absolute; width: 0; height: 0; overflow: hidden;" version="1.1" xmlns="http://www.w3.org/2000/svg" xmlns:xlink="http://www.w3.org/1999/xlink">
<defs>
<symbol id="icon-wrench" viewBox="0 0 32 32">
<title>wrench</title>
<path d="M31.607 5.643l-5.023 5.023h-5.25v-5.332l4.961-4.959c-0.734-0.221-1.492-0.375-2.297-0.375-4.416 0-7.998 3.584-7.998 8 0 1.232 0.301 2.385 0.801 3.43l-16.020 16.015c-0.48 0.485-0.781 1.149-0.781 1.891 0 1.469 1.191 2.664 2.668 2.664 0.738 0 1.406-0.297 1.883-0.781l16.023-16.018c1.041 0.496 2.197 0.799 3.424 0.799 4.422 0 8-3.584 8-8 0-0.826-0.156-1.607-0.391-2.357z"></path>
</symbol>
<symbol id="icon-binoculars" viewBox="0 0 32 32">
<title>binoculars</title>
<path d="M2 0h12v2h-12zM18 0h12v2h-12zM29.75 10h-1.75v-8h-8v8h-8v-8h-8v8h-1.75c-1.238 0-2.25 1.012-2.25 2.25v17.5c0 1.238 1.012 2.25 2.25 2.25h9.5c1.238 0 2.25-1.012 2.25-2.25v-11.75h4v11.75c0 1.238 1.012 2.25 2.25 2.25h9.5c1.238 0 2.25-1.012 2.25-2.25v-17.5c0-1.238-1.012-2.25-2.25-2.25zM10.875 30h-7.75c-0.619 0-1.125-0.45-1.125-1s0.506-1 1.125-1h7.75c0.619 0 1.125 0.45 1.125 1s-0.506 1-1.125 1zM17 16h-2c-0.55 0-1-0.45-1-1s0.45-1 1-1h2c0.55 0 1 0.45 1 1s-0.45 1-1 1zM28.875 30h-7.75c-0.619 0-1.125-0.45-1.125-1s0.506-1 1.125-1h7.75c0.619 0 1.125 0.45 1.125 1s-0.506 1-1.125 1z"></path>
</symbol>
<symbol id="icon-wrench2" viewBox="0 0 32 32">
<title>wrench2</title>
<path d="M31.342 25.559l-14.392-12.336c0.67-1.259 1.051-2.696 1.051-4.222 0-4.971-4.029-9-9-9-0.909 0-1.787 0.135-2.614 0.386l5.2 5.2c0.778 0.778 0.778 2.051 0 2.828l-3.172 3.172c-0.778 0.778-2.051 0.778-2.828 0l-5.2-5.2c-0.251 0.827-0.386 1.705-0.386 2.614 0 4.971 4.029 9 9 9 1.526 0 2.963-0.38 4.222-1.051l12.336 14.392c0.716 0.835 1.938 0.882 2.716 0.104l3.172-3.172c0.778-0.778 0.731-2-0.104-2.716z"></path>
</symbol>
<symbol id="icon-hammer" viewBox="0 0 32 32">
<title>hammer</title>
<path d="M31.562 25.905l-9.423-9.423c-0.583-0.583-1.538-0.583-2.121 0l-0.707 0.707-5.75-5.75 9.439-9.439h-10l-4.439 4.439-0.439-0.439h-2.121v2.121l0.439 0.439-6.439 6.439 5 5 6.439-6.439 5.75 5.75-0.707 0.707c-0.583 0.583-0.583 1.538 0 2.121l9.423 9.423c0.583 0.583 1.538 0.583 2.121 0l3.535-3.535c0.583-0.583 0.583-1.538 0-2.121z"></path>
</symbol>
<symbol id="icon-clipboard" viewBox="0 0 32 32">
<title>clipboard</title>
<path d="M29 4h-9c0-2.209-1.791-4-4-4s-4 1.791-4 4h-9c-0.552 0-1 0.448-1 1v26c0 0.552 0.448 1 1 1h26c0.552 0 1-0.448 1-1v-26c0-0.552-0.448-1-1-1zM16 2c1.105 0 2 0.895 2 2s-0.895 2-2 2c-1.105 0-2-0.895-2-2s0.895-2 2-2zM28 30h-24v-24h4v3c0 0.552 0.448 1 1 1h14c0.552 0 1-0.448 1-1v-3h4v24z"></path>
<path d="M14 26.828l-6.414-7.414 1.828-1.828 4.586 3.586 8.586-7.586 1.829 1.828z"></path>
</symbol>
<symbol id="icon-mail" viewBox="0 0 32 32">
<title>mail</title>
<path d="M26.666 0h-21.332c-2.934 0-5.334 2.4-5.334 5.333v21.333c0 2.934 2.4 5.334 5.334 5.334h21.332c2.936 0 5.334-2.4 5.334-5.334v-21.333c0-2.934-2.398-5.333-5.334-5.333zM8 8h16c0.286 0 0.563 0.061 0.817 0.177l-8.817 10.286-8.817-10.287c0.254-0.116 0.531-0.177 0.817-0.177zM6 22v-12c0-0.042 0.002-0.084 0.004-0.125l5.864 6.842-5.8 5.8c-0.045-0.167-0.069-0.34-0.069-0.517zM24 24h-16c-0.177 0-0.35-0.024-0.517-0.069l5.691-5.691 2.826 3.297 2.826-3.297 5.691 5.691c-0.167 0.045-0.34 0.069-0.517 0.069zM26 22c0 0.177-0.024 0.35-0.069 0.517l-5.8-5.8 5.864-6.842c0.003 0.041 0.004 0.083 0.004 0.125v12z"></path>
</symbol>
<symbol id="icon-facebook" viewBox="0 0 32 32">
<title>facebook</title>
<path d="M19 6h5v-6h-5c-3.86 0-7 3.14-7 7v3h-4v6h4v16h6v-16h5l1-6h-6v-3c0-0.542 0.458-1 1-1z"></path>
</symbol>
<symbol id="icon-facebook2" viewBox="0 0 32 32">
<title>facebook2</title>
<path d="M29 0h-26c-1.65 0-3 1.35-3 3v26c0 1.65 1.35 3 3 3h13v-14h-4v-4h4v-2c0-3.306 2.694-6 6-6h4v4h-4c-1.1 0-2 0.9-2 2v2h6l-1 4h-5v14h9c1.65 0 3-1.35 3-3v-26c0-1.65-1.35-3-3-3z"></path>
</symbol>
<symbol id="icon-github" viewBox="0 0 32 32">
<title>github</title>
<path d="M16 0.395c-8.836 0-16 7.163-16 16 0 7.069 4.585 13.067 10.942 15.182 0.8 0.148 1.094-0.347 1.094-0.77 0-0.381-0.015-1.642-0.022-2.979-4.452 0.968-5.391-1.888-5.391-1.888-0.728-1.849-1.776-2.341-1.776-2.341-1.452-0.993 0.11-0.973 0.11-0.973 1.606 0.113 2.452 1.649 2.452 1.649 1.427 2.446 3.743 1.739 4.656 1.33 0.143-1.034 0.558-1.74 1.016-2.14-3.554-0.404-7.29-1.777-7.29-7.907 0-1.747 0.625-3.174 1.649-4.295-0.166-0.403-0.714-2.030 0.155-4.234 0 0 1.344-0.43 4.401 1.64 1.276-0.355 2.645-0.532 4.005-0.539 1.359 0.006 2.729 0.184 4.008 0.539 3.054-2.070 4.395-1.64 4.395-1.64 0.871 2.204 0.323 3.831 0.157 4.234 1.026 1.12 1.647 2.548 1.647 4.295 0 6.145-3.743 7.498-7.306 7.895 0.574 0.497 1.085 1.47 1.085 2.963 0 2.141-0.019 3.864-0.019 4.391 0 0.426 0.288 0.925 1.099 0.768 6.354-2.118 10.933-8.113 10.933-15.18 0-8.837-7.164-16-16-16z"></path>
</symbol>
<symbol id="icon-finder" viewBox="0 0 32 32">
<title>finder</title>
<path d="M17.788 24.32c-0-0.001-0-0.003-0-0.004 0 0.001 0 0.003 0 0.004z"></path>
<path d="M17.831 25.454c-0-0.007-0.001-0.015-0.001-0.022 0 0.007 0.001 0.015 0.001 0.022z"></path>
<path d="M17.807 24.885c-0-0.006-0-0.011-0.001-0.017 0 0.006 0 0.011 0.001 0.017z"></path>
<path d="M30 0h-28c-1.1 0-2 0.9-2 2v28c0 1.1 0.9 2 2 2h15.432c0.001 0 0.003 0 0.004 0s0.003-0 0.004-0h12.56c1.1 0 2-0.9 2-2v-28c0-1.1-0.9-2-2-2zM6 7c0-0.552 0.448-1 1-1s1 0.448 1 1v2c0 0.552-0.448 1-1 1s-1-0.448-1-1v-2zM30 30h-11.721c-0.209-1.315-0.341-2.671-0.418-3.988 0 0.004 0 0.007 0.001 0.011-0.616 0.067-1.237 0.102-1.862 0.102-4.177 0-8.199-1.52-11.328-4.281-0.466-0.411-0.51-1.122-0.099-1.588s1.122-0.51 1.588-0.099c2.717 2.398 6.211 3.718 9.839 3.718 0.596 0 1.189-0.036 1.776-0.107-0.069-3.694 0.215-6.622 0.22-6.669 0.028-0.281-0.064-0.561-0.254-0.77s-0.459-0.329-0.741-0.329h-2.974c0.043-1.082 0.159-2.932 0.467-5.006 0.589-3.961 1.625-7.055 3.005-8.994h12.502v28z"></path>
<path d="M25 10c-0.552 0-1-0.448-1-1v-2c0-0.552 0.448-1 1-1s1 0.448 1 1v2c0 0.552-0.448 1-1 1z"></path>
<path d="M16.89 26.101c-0.114 0.006-0.228 0.011-0.342 0.014 0.114-0.004 0.228-0.008 0.342-0.014z"></path>
<path d="M16 26.125c0.147 0 0.293-0.002 0.439-0.006-0.146 0.004-0.292 0.006-0.439 0.006z"></path>
<path d="M16.846 23.85c0.024-0.001 0.049-0.003 0.073-0.004-0.024 0.002-0.049 0.003-0.073 0.004z"></path>
<path d="M16.409 23.869c0.034-0.001 0.067-0.002 0.101-0.003-0.034 0.001-0.067 0.003-0.101 0.003z"></path>
<path d="M27.427 20.256c-0.411-0.466-1.122-0.51-1.588-0.099-2.27 2.004-5.083 3.254-8.063 3.612 0.013 0.727 0.040 1.484 0.086 2.255 3.499-0.382 6.806-1.832 9.466-4.18 0.466-0.411 0.51-1.122 0.099-1.588z"></path>
<path d="M17.859 26.023c-0.144 0.016-0.288 0.029-0.433 0.041 0.145-0.012 0.289-0.026 0.433-0.041z"></path>
<path d="M17.359 26.070c-0.122 0.010-0.244 0.018-0.367 0.025 0.122-0.007 0.245-0.015 0.367-0.025z"></path>
</symbol>
<symbol id="icon-linkedin2" viewBox="0 0 32 32">
<title>linkedin2</title>
<path d="M12 12h5.535v2.837h0.079c0.77-1.381 2.655-2.837 5.464-2.837 5.842 0 6.922 3.637 6.922 8.367v9.633h-5.769v-8.54c0-2.037-0.042-4.657-3.001-4.657-3.005 0-3.463 2.218-3.463 4.509v8.688h-5.767v-18z"></path>
<path d="M2 12h6v18h-6v-18z"></path>
<path d="M8 7c0 1.657-1.343 3-3 3s-3-1.343-3-3c0-1.657 1.343-3 3-3s3 1.343 3 3z"></path>
</symbol>
<symbol id="icon-html-five" viewBox="0 0 32 32">
<title>html-five</title>
<path d="M1.892 0l2.567 28.801 11.524 3.199 11.554-3.204 2.572-28.796h-28.216zM24.52 9.42h-13.517l0.322 3.617h12.874l-0.97 10.844-7.245 2.008-7.237-2.008-0.495-5.547h3.547l0.252 2.82 3.933 1.060 0.009-0.002 3.935-1.062 0.408-4.58h-12.242l-0.953-10.681h17.694l-0.316 3.532z"></path>
</symbol>
<symbol id="icon-html-five2" viewBox="0 0 32 32">
<title>html-five2</title>
<path d="M1.892 0l2.567 28.801 11.524 3.199 11.554-3.204 2.572-28.796h-28.216zM25.336 26.963l-9.288 2.574v0.015l-0.024-0.007-0.024 0.007v-0.015l-9.288-2.574-2.195-24.609h23.015l-2.195 24.609zM20.336 16.569l-0.408 4.58-3.944 1.065-3.933-1.060-0.252-2.82h-3.547l0.495 5.547 7.252 2.006 7.229-2.006 0.97-10.844h-12.874l-0.322-3.617h13.517l0.316-3.532h-17.694l0.953 10.681z"></path>
</symbol>
<symbol id="icon-css3" viewBox="0 0 32 32">
<title>css3</title>
<path d="M4.762 1.516l-1.074 5.373h21.867l-0.684 3.47h-21.881l-1.059 5.372h21.865l-1.219 6.127-8.813 2.919-7.638-2.919 0.523-2.658h-5.372l-1.278 6.448 12.632 4.834 14.563-4.834 4.805-24.133z"></path>
</symbol>
<symbol id="icon-paint" viewBox="0 0 32 32">
<title>paint</title>
<path d="M26 13h-10v2h-2v-3h12v-6h-1v3c0 0.552-0.448 1-1 1h-18c-0.553 0-1-0.448-1-1v-4c0-0.553 0.447-1 1-1h18c0.552 0 1 0.447 1 1h2v8h-1zM23 5h-16v1h16v-1zM17 26c0 1.104-0.896 2-2 2s-2-0.896-2-2v-10h4v10zM15 24.583c-0.553 0-1 0.448-1 1 0 0.553 0.447 1 1 1 0.552 0 1-0.447 1-1 0-0.552-0.448-1-1-1z"></path>
</symbol>
<symbol id="icon-chevron-thin-right" viewBox="0 0 32 32">
<title>chevron-thin-right</title>
<path d="M21.2 16l-11.426-11.872c-0.429-0.432-0.429-1.131 0-1.566 0.429-0.432 1.122-0.432 1.55 0l12.528 12.653c0.429 0.434 0.429 1.134 0 1.566l-12.528 12.653c-0.429 0.434-1.122 0.432-1.55 0-0.429-0.43-0.429-1.131 0-1.566l11.426-11.867z"></path>
</symbol>
<symbol id="icon-aircraft-take-off" viewBox="0 0 32 32">
<title>aircraft-take-off</title>
<path d="M31.792 10.325c0.19 0.411 0.203 2.064-7.814 5.827l-7.861 3.69c-2.736 1.285-6.706 2.974-8.456 3.442-1.226 0.326-2.395-0.506-2.395-0.506s-3.53-3.16-4.467-3.87c-0.936-0.71-0.856-1.072 0.344-1.456 0.747-0.238 5.008 0.789 6.824 1.248 2.142-1.28 4.099-2.378 5.026-2.877-2.234-1.653-6.413-4.739-7.746-5.68-1.278-0.904 0.016-1.229 0.016-1.229 0.589-0.158 1.859-0.365 2.499-0.23 4.354 0.91 11.621 3.314 12.178 3.498 1.331-0.698 3.405-1.747 4.675-2.344 3.32-1.558 6.923-0.059 7.178 0.488z"></path>
</symbol>
<symbol id="icon-chat" viewBox="0 0 32 32">
<title>chat</title>
<path d="M9.28 19.52v-9.92h-6.080c-1.76 0-3.2 1.44-3.2 3.2v9.6c0 1.76 1.44 3.2 3.2 3.2h1.6v4.8l4.8-4.8h8c1.76 0 3.2-1.44 3.2-3.2v-2.912c-0.102 0.022-0.211 0.034-0.32 0.034l-11.2-0.002zM28.8 1.6h-14.4c-1.76 0-3.2 1.44-3.2 3.2v12.8h11.2l4.8 4.8v-4.8h1.6c1.76 0 3.2-1.438 3.2-3.2v-9.6c0-1.76-1.44-3.2-3.2-3.2z"></path>
</symbol>
<symbol id="icon-key" viewBox="0 0 32 32">
<title>key</title>
<path d="M28.306 7.56c-0.805-4.763-5.152-7.947-9.71-7.106-4.56 0.84-8.41 4.506-7.605 9.272 0.171 1.026 0.653 2.63 1.221 3.784l-8.28 12.357c-0.306 0.456-0.478 1.278-0.387 1.826l0.533 3.154c0.093 0.547 0.595 0.915 1.12 0.822l2.426-0.45c0.525-0.094 1.19-0.557 1.478-1.022l3.275-5.298 0.029-0.035 2.218-0.41 3.824-6.206c1.256 0.222 3.059 0.147 4.125-0.050 4.557-0.842 6.539-5.872 5.734-10.638zM24.266 10.003c-1.254 1.872-2.534 0.554-4.325-0.76-1.79-1.309-3.416-2.115-2.163-3.987 1.254-1.872 3.722-2.328 5.515-1.016 1.792 1.31 2.226 3.891 0.973 5.763z"></path>
</symbol>
<symbol id="icon-magnifying-glass" viewBox="0 0 32 32">
<title>magnifying-glass</title>
<path d="M28.072 24.747l-6.046-6.046c0.912-1.496 1.437-3.256 1.437-5.136 0-5.467-4.738-10.203-10.205-10.203-5.467-0.002-9.898 4.43-9.898 9.898 0 5.466 4.738 10.203 10.203 10.203 1.819 0 3.52-0.494 4.984-1.35l6.078 6.082c0.595 0.594 1.56 0.594 2.154 0l1.509-1.509c0.594-0.594 0.378-1.344-0.216-1.938zM6.406 13.259c0-3.786 3.067-6.853 6.851-6.853 3.786 0 7.158 3.371 7.158 7.158 0 3.784-3.069 6.853-6.853 6.853-3.786-0.002-7.157-3.374-7.157-7.158z"></path>
</symbol>
<symbol id="icon-map" viewBox="0 0 32 32">
<title>map</title>
<path d="M31.115 5.949l-9.6-4.8c-0.45-0.226-0.981-0.226-1.432 0l-9.008 4.504-8.97-2.99c-0.49-0.163-1.024-0.082-1.442 0.221-0.418 0.301-0.664 0.784-0.664 1.298v20.802c0 0.606 0.342 1.16 0.885 1.43l9.6 4.8c0.226 0.112 0.47 0.17 0.715 0.17s0.491-0.056 0.715-0.17l9.008-4.502 8.97 2.99c0.488 0.16 1.024 0.078 1.442-0.222s0.664-0.784 0.664-1.296v-20.803c0.002-0.606-0.341-1.16-0.883-1.43zM12.8 8.37l6.4-3.2v18.821l-6.4 3.2v-18.821zM3.2 6.4l6.4 2.133v18.658l-6.4-3.2v-17.59zM28.8 25.963l-6.4-2.134v-18.659l6.4 3.2v17.594z"></path>
</symbol>
<symbol id="icon-bookmark" viewBox="0 0 20 20">
<title>bookmark</title>
<path d="M14 2v17l-4-4-4 4v-17c0-0.553 0.585-1.020 1-1h6c0.689-0.020 1 0.447 1 1z"></path>
</symbol>
<symbol id="icon-chevron-thin-right" viewBox="0 0 20 20">
<title>chevron-thin-right</title>
<path d="M13.25 10l-7.141-7.42c-0.268-0.27-0.268-0.707 0-0.979 0.268-0.27 0.701-0.27 0.969 0l7.83 7.908c0.268 0.271 0.268 0.709 0 0.979l-7.83 7.908c-0.268 0.271-0.701 0.27-0.969 0s-0.268-0.707 0-0.979l7.141-7.417z"></path>
</symbol>
<symbol id="icon-aircraft-take-off" viewBox="0 0 20 20">
<title>aircraft-take-off</title>
<path d="M19.87 6.453c0.119 0.257 0.127 1.29-4.884 3.642l-4.913 2.306c-1.71 0.803-4.191 1.859-5.285 2.151-0.766 0.204-1.497-0.316-1.497-0.316s-2.206-1.975-2.792-2.419c-0.585-0.444-0.535-0.67 0.215-0.91 0.467-0.149 3.13 0.493 4.265 0.78 1.339-0.8 2.562-1.486 3.141-1.798-1.396-1.033-4.008-2.962-4.841-3.55-0.799-0.565 0.010-0.768 0.010-0.768 0.368-0.099 1.162-0.228 1.562-0.144 2.721 0.569 7.263 2.071 7.611 2.186 0.832-0.436 2.128-1.092 2.922-1.465 2.075-0.974 4.327-0.037 4.486 0.305z"></path>
</symbol>
<symbol id="icon-chat" viewBox="0 0 20 20">
<title>chat</title>
<path d="M5.8 12.2v-6.2h-3.8c-1.1 0-2 0.9-2 2v6c0 1.1 0.9 2 2 2h1v3l3-3h5c1.1 0 2-0.9 2-2v-1.82c-0.064 0.014-0.132 0.021-0.2 0.021l-7-0.001zM18 1h-9c-1.1 0-2 0.9-2 2v8h7l3 3v-3h1c1.1 0 2-0.899 2-2v-6c0-1.1-0.9-2-2-2z"></path>
</symbol>
<symbol id="icon-key" viewBox="0 0 20 20">
<title>key</title>
<path d="M17.691 4.725c-0.503-2.977-3.22-4.967-6.069-4.441s-5.256 2.816-4.753 5.795c0.107 0.641 0.408 1.644 0.763 2.365l-5.175 7.723c-0.191 0.285-0.299 0.799-0.242 1.141l0.333 1.971c0.058 0.342 0.372 0.572 0.7 0.514l1.516-0.281c0.328-0.059 0.744-0.348 0.924-0.639l2.047-3.311 0.018-0.022 1.386-0.256 2.39-3.879c0.785 0.139 1.912 0.092 2.578-0.031 2.848-0.526 4.087-3.67 3.584-6.649zM15.166 6.252c-0.784 1.17-1.584 0.346-2.703-0.475-1.119-0.818-2.135-1.322-1.352-2.492s2.326-1.455 3.447-0.635c1.12 0.819 1.391 2.432 0.608 3.602z"></path>
</symbol>
<symbol id="icon-magnifying-glass" viewBox="0 0 20 20">
<title>magnifying-glass</title>
<path d="M17.545 15.467l-3.779-3.779c0.57-0.935 0.898-2.035 0.898-3.21 0-3.417-2.961-6.377-6.378-6.377s-6.186 2.769-6.186 6.186c0 3.416 2.961 6.377 6.377 6.377 1.137 0 2.2-0.309 3.115-0.844l3.799 3.801c0.372 0.371 0.975 0.371 1.346 0l0.943-0.943c0.371-0.371 0.236-0.84-0.135-1.211zM4.004 8.287c0-2.366 1.917-4.283 4.282-4.283s4.474 2.107 4.474 4.474c0 2.365-1.918 4.283-4.283 4.283s-4.473-2.109-4.473-4.474z"></path>
</symbol>
<symbol id="icon-map" viewBox="0 0 20 20">
<title>map</title>
<path d="M19.447 3.718l-6-3c-0.281-0.141-0.613-0.141-0.895 0l-5.63 2.815-5.606-1.869c-0.306-0.102-0.64-0.051-0.901 0.138s-0.415 0.49-0.415 0.811v13.001c0 0.379 0.214 0.725 0.553 0.894l6 3c0.141 0.070 0.294 0.106 0.447 0.106s0.307-0.035 0.447-0.106l5.63-2.814 5.606 1.869c0.305 0.1 0.64 0.049 0.901-0.139s0.415-0.49 0.415-0.81v-13.002c0.001-0.379-0.213-0.725-0.552-0.894zM8 5.231l4-2v11.763l-4 2v-11.763zM2 4l4 1.333v11.661l-4-2v-10.994zM18 16.227l-4-1.334v-11.662l4 2v10.996z"></path>
</symbol>

<symbol id="simpleicons-bootstrap-icon" viewBox="0 0 20 20">
<svg aria-labelledby="simpleicons-bootstrap-icon" role="img" viewBox="0 0 24 24" xmlns="http://www.w3.org/2000/svg"><title id="icon-bootstrap-icon">Bootstrap icon</title><path d="M20 0H4C1.793.006.006 1.793 0 4v16c0 2.2 1.8 4 4 4h16c2.2 0 4-1.8 4-4V4c0-2.2-1.8-4-4-4zm-2.187 16.855c-.2.482-.517.907-.923 1.234-.42.34-.952.62-1.607.82-.654.203-1.432.305-2.333.305H6.518v-14h6.802c1.258 0 2.266.283 3.02.86.76.58 1.138 1.444 1.138 2.61 0 .705-.172 1.31-.518 1.81-.344.497-.84.886-1.48 1.156v.046c.854.18 1.515.585 1.95 1.215s.658 1.426.658 2.387c0 .538-.104 1.05-.3 1.528l.025.027zm-2.776-3.45c-.41-.375-.986-.558-1.73-.558H8.985v4.368h4.334c.74 0 1.32-.192 1.73-.58.41-.385.62-.934.62-1.64-.007-.69-.21-1.224-.62-1.59h-.017zm-.6-2.823c.396-.336.59-.817.59-1.444 0-.704-.175-1.204-.53-1.49-.352-.285-.86-.433-1.528-.433h-4v3.863h4c.583 0 1.08-.17 1.464-.496z"/></svg>
</symbol>

<symbol id="simpleicons-css3-icon" viewBox="0 0 20 20">
<svg aria-labelledby="simpleicons-css3-icon" role="img" viewBox="0 0 24 24" xmlns="http://www.w3.org/2000/svg"><title id="simpleicons-css3-icon">CSS3 icon</title><path d="M1.5 0h21l-1.91 21.563L11.977 24l-8.565-2.438L1.5 0zm17.09 4.413L5.41 4.41l.213 2.622 10.125.002-.255 2.716h-6.64l.24 2.573h6.182l-.366 3.523-2.91.804-2.956-.81-.188-2.11h-2.61l.29 3.855L12 19.288l5.373-1.53L18.59 4.414z"/></svg>
</symbol>

<symbol id="simpleicons-git-icon" viewBox="0 0 20 20">
<svg aria-labelledby="simpleicons-git-icon" role="img" viewBox="0 0 24 24" xmlns="http://www.w3.org/2000/svg"><title id="simpleicons-git-icon">Git icon</title><path d="M23.546 10.93L13.067.452c-.604-.603-1.582-.603-2.188 0L8.708 2.627l2.76 2.76c.645-.215 1.379-.07 1.889.441.516.515.658 1.258.438 1.9l2.658 2.66c.645-.223 1.387-.078 1.9.435.721.72.721 1.884 0 2.604-.719.719-1.881.719-2.6 0-.539-.541-.674-1.337-.404-1.996L12.86 8.955v6.525c.176.086.342.203.488.348.713.721.713 1.883 0 2.6-.719.721-1.889.721-2.609 0-.719-.719-.719-1.879 0-2.598.182-.18.387-.316.605-.406V8.835c-.217-.091-.424-.222-.6-.401-.545-.545-.676-1.342-.396-2.009L7.636 3.7.45 10.881c-.6.605-.6 1.584 0 2.189l10.48 10.477c.604.604 1.582.604 2.186 0l10.43-10.43c.605-.603.605-1.582 0-2.187"/></svg>
</symbol>

<symbol id="simpleicons-mongodb-icon" viewBox="0 0 20 20">
<svg aria-labelledby="simpleicons-mongodb-icon" role="img" viewBox="0 0 24 24" xmlns="http://www.w3.org/2000/svg"><title id="simpleicons-mongodb-icon">MongoDB icon</title><path d="M17.18 9.518c-1.263-5.56-4.242-7.387-4.562-8.086C12.266.939 11.885 0 11.885 0c-.002.019-.004.031-.005.049v.013h-.001c-.002.015-.003.025-.004.039v.015h-.002c0 .01-.002.018-.002.026v.026h-.003c-.001.008-.001.018-.003.025v.021h-.002c0 .007 0 .015-.002.021v.02h-.002c0 .01-.001.022-.002.032v.002c-.003.017-.006.034-.009.05v.008h-.002c-.001.004-.003.008-.003.012v.017h-.003v.022h-.005v.018h-.005v.021h-.004v.019h-.004v.017h-.006v.014h-.004v.018h-.004v.014h-.005v.013H11.8v.015h-.004c-.001.001-.001.003-.001.004v.01h-.003c-.001.002-.001.004-.001.006v.006h-.002c-.001.003-.002.008-.002.01-.003.007-.007.014-.01.021v.002c-.002.002-.004.005-.005.007v.008h-.004v.008h-.005v.008h-.003v.01h-.006v.014h-.004v.004h-.004v.008h-.004v.011h-.004v.008h-.006v.011h-.004v.008h-.005v.008h-.003v.01h-.005v.008h-.004v.006h-.004v.008h-.006V.76h-.004v.006h-.005v.008h-.004v.011h-.005v.004h-.003v.008h-.006v.004h-.004v.01h-.004v.004h-.004v.008h-.005v.006h-.003l-.002.004v.004h-.002c-.001.002-.002.002-.002.004v.001h-.001c-.001.003-.002.005-.004.007v.003h-.001c-.005.006-.008.012-.012.018v.001c-.002.002-.007.006-.009.01v.002h-.001c-.001.001-.003.002-.003.003v.003h-.002l-.003.003v.001h-.001c0 .001-.002.002-.003.004v.004h-.003l-.002.002v.002h-.002c0 .002-.002.002-.002.003v.003h-.004c0 .001-.001.002-.002.003V.92h-.003v.004h-.004V.93h-.004v.008h-.005V.93h-.005v.004h-.004V.94h-.005v.008h-.005v.004h-.004v.006h-.004v.004h-.004V.97h-.006v.004h-.004V.98h-.005v.004h-.004v.005h-.005v.01h-.002v.004h-.006v.005h-.004v.002h-.004v.004h-.005v.01h-.004v.004h-.005v.004h-.004v.006h-.005v.004h-.005v.004h-.004v.004h-.004v.01h-.004v.005h-.006v.004h-.004v.004h-.005v.006h-.004v.004h-.005v.007h-.004v.004h-.006V1.1h-.002v.004h-.004v.004h-.005v.004h-.004v.006h-.005v.004h-.003c-.001.001-.001.002-.001.002v.002h-.002l-.004.004s-.002.002-.004.003v.006h-.004v.005h-.004v.004h-.004v.004h-.003l-.003.003v.003h-.002l-.002.002v.003h-.002c-.005.006-.007.01-.014.016-.002.002-.008.007-.012.01-.012.008-.027.021-.039.032-.008.005-.016.012-.022.017v.001h-.001c-.016.013-.031.025-.049.039v.001c-.024.02-.047.039-.074.062V1.34h-.002c-.057.047-.117.1-.186.159V1.5h-.001c-.169.148-.37.338-.595.568l-.015.015-.004.004C9 3.494 6.857 6.426 6.631 11.164c-.02.392-.016.773.006 1.144v.009c.109 1.867.695 3.461 1.428 4.756v.001c.292.516.607.985.926 1.405v.001c1.102 1.455 2.227 2.317 2.514 2.526.441 1.023.4 2.779.4 2.779l.644.215s-.131-1.701.053-2.522c.057-.257.192-.476.349-.662.106-.075.42-.301.797-.645.018-.019.028-.036.044-.054 1.521-1.418 4.362-4.91 3.388-10.599z"/></svg>
</symbol>

<symbol id="simpleicons-nodejs-icon" viewBox="0 0 20 20">
<svg aria-labelledby="simpleicons-nodejs-icon" role="img" viewBox="0 0 24 24" xmlns="http://www.w3.org/2000/svg"><title id="simpleicons-nodejs-icon">Node.JS icon</title><path d="M11.435.153l-9.37 5.43c-.35.203-.564.578-.563.983V17.43c0 .404.215.78.564.982l9.37 5.435c.35.203.78.203 1.13 0l9.366-5.433c.35-.205.564-.578.565-.982V6.566c0-.404-.216-.78-.566-.984L12.567.152c-.35-.203-.782-.203-1.13 0"/></svg>
</symbol>

<symbol id="simpleicons-python-icon" viewBox="0 0 20 20">
<svg viewBox="0 0 24 24" aria-labelledby="simpleicons-python-icon" xmlns="http://www.w3.org/2000/svg" role="img"><title id="simpleicons-python-icon">Python icon</title><path d="M14.31.18l.9.2.73.26.59.3.45.32.34.34.25.34.16.33.1.3.04.26.02.2-.01.13V8.5l-.05.63-.13.55-.21.46-.26.38-.3.31-.33.25-.35.19-.35.14-.33.1-.3.07-.26.04-.21.02H8.83l-.69.05-.59.14-.5.22-.41.27-.33.32-.27.35-.2.36-.15.37-.1.35-.07.32-.04.27-.02.21v3.06H3.23l-.21-.03-.28-.07-.32-.12-.35-.18-.36-.26-.36-.36-.35-.46-.32-.59-.28-.73-.21-.88-.14-1.05L0 11.97l.06-1.22.16-1.04.24-.87.32-.71.36-.57.4-.44.42-.33.42-.24.4-.16.36-.1.32-.05.24-.01h.16l.06.01h8.16v-.83H6.24l-.01-2.75-.02-.37.05-.34.11-.31.17-.28.25-.26.31-.23.38-.2.44-.18.51-.15.58-.12.64-.1.71-.06.77-.04.84-.02 1.27.05 1.07.13zm-6.3 1.98l-.23.33-.08.41.08.41.23.34.33.22.41.09.41-.09.33-.22.23-.34.08-.41-.08-.41-.23-.33-.33-.22-.41-.09-.41.09-.33.22z"/><path d="M21.1 6.11l.28.06.32.12.35.18.36.27.36.35.35.47.32.59.28.73.21.88.14 1.04.05 1.23-.06 1.23-.16 1.04-.24.86-.32.71-.36.57-.4.45-.42.33-.42.24-.4.16-.36.09-.32.05-.24.02-.16-.01h-8.22v.82h5.84l.01 2.76.02.36-.05.34-.11.31-.17.29-.25.25-.31.24-.38.2-.44.17-.51.15-.58.13-.64.09-.71.07-.77.04-.84.01-1.27-.04-1.07-.14-.9-.2-.73-.25-.59-.3-.45-.33-.34-.34-.25-.34-.16-.33-.1-.3-.04-.25-.02-.2.01-.13v-5.34l.05-.64.13-.54.21-.46.26-.38.3-.32.33-.24.35-.2.35-.14.33-.1.3-.06.26-.04.21-.02.13-.01h5.84l.69-.05.59-.14.5-.21.41-.28.33-.32.27-.35.2-.36.15-.36.1-.35.07-.32.04-.28.02-.21V6.07h2.09l.14.01.21.03zm-6.47 14.25l-.23.33-.08.41.08.41.23.33.33.23.41.08.41-.08.33-.23.23-.33.08-.41-.08-.41-.23-.33-.33-.23-.41-.08-.41.08-.33.23z"/></svg>
</symbol>

<symbol id="simpleicons-sass-icon">
<svg xmlns="http://www.w3.org/2000/svg" viewBox="0 0 512 512"><path d="M511.784 329.108c-1.67-13.599-9.236-24.146-20.795-32.416 2.857 2.04 5.275 3.766-.055-.041-7.189-5.131-3.38-2.411-.047-.032-28.5-20.301-65.676-15.789-96.733-4.511-12.447-20.295-12.987-35.783-5.816-57.937.929-2.8.295-4.354-2.624-5.604-7.086-3.03-17.291-1.427-24.422.463-2.462.646-4.254 1.9-4.8 4.381-5.154 24.243-21.009 46.448-34.828 66.886-9.731-18.652-8.96-33.087-2.414-52.516.798-2.366.431-3.624-1.937-4.879-7.26-3.757-18.401-1.912-25.8.276-8.509 2.482-21.29 44.594-25.372 52.946-8.531 17.442-16.091 44.665-30.585 58.502-12.3-15.807 22.526-51.517 10.882-65.851-3.938-4.848-11.063-4.723-15.586-.616 1.085-7.608 1.648-12.609-.32-19.063-2.081-6.79-7.361-10.687-15.09-10.49-17.995.527-33.843 13.815-44.641 26.397-10.277 12.105-37.381 19.627-51.953 26.927-25.032-21.807-79.221-44.947-80.632-82.081-1.528-41.846 48.319-70.245 81.597-87.228 43.28-22.104 109.961-49.608 159.138-25.436 13.049 6.414 18.299 20.171 14.707 33.348-9.368 34.366-47.198 57.293-80.103 67.807-16.189 5.175-33.969 9.027-51.1 8.026-22.955-1.343-40.83-15.224-43.281-16.086-2.049-.389-1.888 2.261-1.347 3.664 23.816 62.433 144.417 16.681 175.956-15.371 15.189-15.421 24.413-30.365 28.351-53.894 4.616-27.583-15.634-44.842-31.004-51.957-77.918-36.072-185.636 11.168-244.553 59.327-25.568 20.901-57.552 54.11-42.874 88.946 15.93 37.805 64.736 57.19 96.503 80.312-25.704 12.773-57.862 25.983-74.518 49.933-9.524 13.729-12.903 28.359-5.811 43.966 12.572 27.568 58.285 15.622 77.573 3.471 17.67-11.13 29.563-26.07 34.7-45.228 4.455-16.609 3.541-33.866-3.856-49.512l28.585-14.458c-7.697 23.076-11.097 52.003 4.881 72.855 6.402 8.338 23.017 8.675 29.817.311 8.816-10.943 14.664-24.655 20.503-37.206-.682 9.373-1.856 19.996 1.377 28.165 3.71 9.373 12.126 11.291 20.792 5.343 26.52-18.203 43.398-68.652 56.463-98.062 3.552 12.829 7.473 24.548 13.957 36.376 1.602 2.903 1.407 4.774-.796 7.195-9.685 10.675-32.826 28.479-35.069 42.899-.524 3.371 1.713 6.599 5.686 7.37 15.573 3.108 32.838-2.531 45.482-11.078 13.188-8.922 17.446-21.087 14.245-35.515-4.576-20.771 10.993-43.98 25.801-61.03 2.719 12.908 6.816 25.331 14.143 36.606-13.075 11.483-32.58 27.764-29.779 46.939.988 6.865 7.135 11.301 14.514 9.736 15.783-3.324 29.416-10.113 39.37-22.146 9.023-10.855 5.792-22.701 1.856-34.635 23.872-6.815 48.022-8.177 71.831-.027 11.495 3.91 20.755 10.5 26.248 20.818 6.726 12.644 2.939 24.292-10.05 32.604-3.287 2.104-5.562 3.833-4.45 4.743 1.112.911 4.9 2.113 13.284-3.152 8.384-5.267 13.51-12.383 14.823-21.725a37.09 37.09 0 0 0-.024-7.755zm-398.838 25.259c-1.358 16.673-9.636 30.193-23.175 41.114-7.617 6.158-17.102 11.176-26.52 12.092-9.418.917-16.751-1.461-17.378-11.23-1.764-27.493 40.923-54.424 64.625-62.533 2.02 6.86 3.011 13.666 2.432 20.587l.016-.03zm103.102-72.453c-3.903 22.309-14.83 62.347-32.314 78.336-2.356 2.143-4.61 2.018-5.809-.771-10.345-24.059 3.671-73.669 33.082-81.328 3.457-.889 5.602.582 5.041 3.763zm70.311 81.768c8.422-8.962 16.834-17.916 25.269-26.927 1.043 10.021-17.571 29.964-25.269 26.927zm80.714-17.696c-2.348 1.273-7.621 2.515-7.827.835-1.482-12.085 11.816-24.874 20.067-30.867 4.453 11.343-.818 23.834-12.24 30.032z"/></svg>
</symbol>

<symbol id="simpleicons-html5-icon" viewBox="0 0 20 20">
<svg aria-labelledby="simpleicons-html5-icon" role="img" viewBox="0 0 24 24" xmlns="http://www.w3.org/2000/svg"><title id="simpleicons-html5-icon">HTML5 icon</title><path d="M1.5 0h21l-1.91 21.563L11.977 24l-8.564-2.438L1.5 0zm7.031 9.75l-.232-2.718 10.059.003.23-2.622L5.412 4.41l.698 8.01h9.126l-.326 3.426-2.91.804-2.955-.81-.188-2.11H6.248l.33 4.171L12 19.351l5.379-1.443.744-8.157H8.531z"/></svg>
</symbol>
<symbol id="simpleicons-jq-icon" viewBox="0 0 20 20">
<svg aria-labelledby="simpleicons-jquery-icon" role="img" xmlns="http://www.w3.org/2000/svg" viewBox="0 0 24 24"><title id="simpleicons-jquery-icon">jQuery icon</title><path d="M1.534 5.874c-2.123 3.05-1.86 7.017-.237 10.256.037.079.078.154.118.229.023.052.049.1.077.149.013.028.031.057.047.083.026.052.054.102.081.152l.157.265c.029.049.057.097.09.146.055.094.12.187.177.281.026.039.05.078.079.117a6.36 6.36 0 0 0 .31.444c.078.107.156.211.24.315.027.038.057.076.085.114l.221.269c.027.031.054.067.083.099.098.118.202.233.306.349 0 .002.003.004.005.007a3.13 3.13 0 0 0 .424.44c.08.082.16.164.245.244l.101.097c.111.104.222.208.339.308.002 0 .003.002.005.003l.057.05c.102.089.205.178.31.26l.125.105c.085.068.173.133.26.2l.136.104c.093.07.192.139.287.207.035.025.07.05.106.073l.029.023.281.185.12.08c.147.094.293.183.438.271.042.021.084.044.123.068.108.062.22.125.329.183.06.034.122.063.184.094.075.042.153.083.233.125a.324.324 0 0 1 .056.023c.033.015.064.031.096.047.12.06.245.117.375.174.024.01.05.02.076.034.144.063.288.123.437.182.034.01.07.027.105.04.135.051.274.103.411.152l.05.018c.153.052.304.102.459.15.036.01.073.023.111.033.159.048.313.105.473.136 10.26 1.87 13.242-6.169 13.242-6.169-2.505 3.262-6.95 4.122-11.16 3.165-.156-.036-.312-.086-.469-.132a13.522 13.522 0 0 1-.567-.181l-.062-.024c-.136-.046-.267-.097-.4-.148a1.613 1.613 0 0 0-.11-.041c-.147-.059-.29-.12-.432-.183-.031-.01-.057-.024-.088-.036a23.41 23.41 0 0 1-.361-.17c-.037-.016-.07-.033-.106-.052-.094-.044-.188-.094-.28-.142a3.942 3.942 0 0 1-.187-.096c-.113-.06-.226-.125-.339-.187-.034-.024-.073-.044-.112-.066a15.902 15.902 0 0 1-.438-.269 2.104 2.104 0 0 1-.118-.079 6.002 6.002 0 0 1-.312-.206c-.035-.023-.067-.048-.103-.073a9.541 9.541 0 0 1-.294-.212c-.042-.034-.087-.066-.132-.1-.088-.069-.177-.135-.265-.208l-.118-.094a10.58 10.58 0 0 1-.334-.281.258.258 0 0 0-.037-.03l-.347-.316-.1-.094c-.082-.083-.166-.163-.25-.245l-.097-.1a9.07 9.07 0 0 1-.309-.323l-.015-.016c-.106-.116-.209-.234-.313-.354-.027-.031-.052-.064-.08-.097l-.226-.277a21.248 21.248 0 0 1-.34-.448C2.16 11.786 1.315 7.386 3.184 3.777"/><path d="M8.121 3.305c-1.539 2.209-1.452 5.163-.254 7.499a9.1 9.1 0 0 0 .677 1.132c.23.33.484.72.792.986.107.122.223.24.344.359l.09.09c.114.11.231.218.35.325l.015.013a9.855 9.855 0 0 0 .414.342c.034.023.063.05.096.073.14.108.281.212.427.315l.015.009c.062.045.128.086.198.13.028.018.06.042.09.06.106.068.21.132.317.197.017.007.032.016.048.023.09.055.188.108.282.157.033.02.065.035.099.054.067.033.133.068.197.102l.032.014c.135.066.273.128.408.19.034.013.063.024.092.038.111.048.224.094.335.137.05.017.097.037.144.052.102.038.209.073.31.108l.14.045c.146.045.294.104.448.129 7.92 1.313 9.754-4.787 9.754-4.787-1.651 2.376-4.846 3.508-8.251 2.624a8.03 8.03 0 0 1-.448-.13c-.048-.013-.09-.028-.136-.042-.104-.036-.211-.071-.312-.109l-.144-.054c-.112-.045-.226-.087-.335-.135-.034-.015-.065-.025-.091-.04-.14-.063-.281-.125-.417-.192l-.206-.107-.119-.06c-.092-.048-.177-.098-.265-.15a.62.62 0 0 1-.062-.034c-.106-.066-.216-.13-.317-.198-.034-.019-.065-.042-.097-.062l-.208-.136c-.144-.1-.285-.208-.427-.312-.032-.029-.063-.053-.094-.079-1.497-1.177-2.678-2.786-3.238-4.608-.59-1.894-.46-4.018.559-5.742"/><path d="M13.66 1.384c-.908 1.332-.995 2.986-.37 4.455.664 1.56 2.022 2.785 3.604 3.365.065.025.128.046.195.07l.088.027c.092.029.185.063.28.084 4.376.844 5.56-2.247 5.879-2.701-1.042 1.496-2.789 1.855-4.932 1.334a4.844 4.844 0 0 1-.516-.16 6.344 6.344 0 0 1-.617-.254 6.521 6.521 0 0 1-1.08-.66c-1.92-1.454-3.109-4.23-1.857-6.491"/></svg>
</symbol>

<symbol id="" viewBox="0 0 20 20">
<?xml version="1.0" encoding="UTF-8" standalone="no"?>
<svg xmlns="http://www.w3.org/2000/svg" width="2500" height="566" viewBox="0 0 512 116"><g fill="none" fill-rule="evenodd"><path d="M489.718 8.646l21.42.118s-39.824 53.964-43.076 58.362c-1.056 1.424-2.66 2.96-3.474 4.864-2.057 4.786-4.169 15.285-4.169 15.285l-19.599.098s3.05-10.944 2.924-16.773c-.11-5.092-2.71-10.178-4.168-15.285-1.474-5.17-3.475-15.286-3.475-15.286h20.15l2.779 11.117 30.688-42.5" fill="#1A1918"/><path d="M449.157 20.027c3.953 2.383 6.379 15.529 6.379 15.529s-20.684.305-31.94.305h-9.727l-11.812 51.414h-18.064s11.242-55.874 13.896-66.004c.86-3.28 5.892-2.717 14.389-2.717h13.569c8.762 0 19.003-1.119 23.31 1.473M365.06 45.067s.563-3.3-1.91-7.122c-2.113-3.258-4.064-4.016-9.623-4.19-15.695-.493-15.39 11.138-15.39 11.138l26.923.174zm17.022-13.32c2.3 8.297-2.084 27.792-2.084 27.792s-22.894-.382-35.434 0c-3.899.119-8.566-.424-9.727 1.39-1.633 2.542.597 6.455 2.487 8.108 2.175 1.903 6.412 2.12 7.935 2.313 10.178 1.293 31.48.334 31.48.334l-3.69 16.34s-30.103 1.51-45.16-2.084c-2.973-.708-5.76-2.139-7.643-4.168-.514-.555-.96-1.312-1.446-1.966-.388-.522-1.52-2.237-2.028-3.593-3.439-9.164.403-26.72 4.169-36.128.437-1.09.986-2.473 1.564-3.648.722-1.465 1.333-3.119 1.91-3.995.388-.604.869-.993 1.272-1.563.465-.674 1.006-1.327 1.507-1.91 1.39-1.612 2.967-2.752 4.864-4.168 6.273-4.698 17.626-8.345 31.265-6.949 5.135.528 12.89 2.362 16.675 7.643 1.014 1.41 1.515 4.21 2.084 6.253zM299.229 18.49l17.516-.103s-9.762 46.307-14.737 68.888h-20.15c-14.082 0-26.623 1.744-31.959-8.338-5.176-9.789-.236-25.887 2.084-36.824 1.64-7.74 5.094-23.56 5.094-23.56l18.148-.166s-5.128 24.63-7.262 36.928c-.764 4.405-2.34 8.553-.694 11.81 1.563 3.1 3.752 3.322 10.421 3.475 2.113.05 9.033 0 9.033 0l12.506-52.11M217.244 51.84c1.834-6.516 4.509-13.582 4.169-19.454-.368-6.28-5.634-11.998-9.032-13.2-10.234-3.613-19.815 1.438-23.623 5.558-4.926 5.336-6.594 11.569-8.338 20.15-1.298 6.37-2.362 13.095 0 18.063 4.182 8.783 17.224 6.865 31.266 6.949 2.084-5.586 3.807-11.86 5.558-18.066zm24.318-25.706c2 14.548-5.676 30.606-10.964 44.57 5.392.487 10.117-.075 10.457.327.354.521-3.614 16.668-4.997 16.71-4.279.111-18.459.229-24.372.229-19.295 0-37.345 1.257-46.55-8.337-3.738-3.898-6.323-10.583-6.949-15.286-1.042-7.851.264-16.495 2.085-23.622 1.647-6.435 3.758-12.507 6.948-18.066C175.328 8.507 189.432-1.998 213.075.427c4.586.472 11.172 2.48 15.286 4.863.284.167 1.279.959 1.507 1.098 5.559 3.537 10.624 11.978 11.694 19.746zM156.193 18.574c-1.167 5.315-2.334 11.34-3.564 16.592h-19.454c1.507-5.822 2.661-11.61 4.169-16.675 6.225 0 12.013.083 18.85.083M132.48 40.03h18.76c-2.453 13.576-7.31 35.475-11.117 50.719-2.383 9.54-3.974 16.501-10.422 21.538-.577.452-.91.237-1.39.695-1.188 1.133-6.684 2.447-9.726 2.779-4.947.536-10.54.07-16.62-.055 1.591-5.815 3.391-12.798 4.809-18.01 14.82 1.794 15.195-12.214 18.064-25.706 1.66-7.796 6.691-28.834 7.642-31.96" fill="#1A1918"/><g fill="#21609B"><path d="M88.708 75.464l-.402 1.042c-6.85 13.34-18.989 21.524-36.303 21.885-8.094.167-15.806-1.91-20.844-4.168C20.287 89.338 11.142 80.279 6.148 70.6c-7.164-13.875-8.456-33.176 6.44-47.592.23 0-1.807 3.126-1.577 3.126l-.41 1.334C-.133 61.074 32.938 89.874 65.086 86.58c7.726-.792 17.578-5.023 23.622-11.116"/><path d="M69.254 61.568c8.088.055 16.536-3.725 21.539-9.032-4.377 11.11-17.05 18.251-34.044 15.98-14.23-1.904-27.785-16.223-29.181-30.571-1.021-10.442 2.618-16.674 8.615-24.234-2.084 3.954-2.863 7.003-3.057 8.948-2.278 22.588 18.044 38.79 36.128 38.909"/><path d="M89.98 33.512c-1.257 2.884-8.496 8.33-11.693 9.011-12.659 2.697-20.766-3.306-25.013-10.137-.631-1.02-1.798-3.806-2.007-4.515-1.647-5.6-.89-14.07 4.023-18.454-1.48 4.169-1.696 9.011-.917 12.159.472 1.903 1.91 5.226 3.349 7.316 2.618 3.807 4.279 4.732 7.642 6.754 1.515.91 3.14 1.64 3.842 1.84 3.189.939 9.922 3.412 20.775-3.974"/></g></g>
	<metadata>
		<rdf:RDF xmlns:rdf="http://www.w3.org/1999/02/22-rdf-syntax-ns#" xmlns:rdfs="http://www.w3.org/2000/01/rdf-schema#" xmlns:dc="http://purl.org/dc/elements/1.1/">
			<rdf:Description about="https://iconscout.com/legal#licenses" dc:title="jquery-1" dc:description="jquery-1" dc:publisher="Iconscout" dc:date="2017-06-17" dc:format="image/svg+xml" dc:language="en">
				<dc:creator>
					<rdf:Bag>
						<rdf:li>Icon Mafia</rdf:li>
					</rdf:Bag>
				</dc:creator>
			</rdf:Description>
		</rdf:RDF>
    </metadata></svg>

</symbol>
</defs>
</svg>
